# xmcd
#
# Track frame offsets: 
#        150
#        11694
#        23097
#        32044
#        45193
#        64326
#        86639
#        98089
#        106982
#        149921
#        200523
#        236259
#        256179
#        267702
#        279904
#
# Disc length: 4022 seconds
#
# Revision: 0
# Processed by: cddbd v1.5.2PL0 Copyright (c) Steve Scherf et al.
# Submitted via: ExactAudioCopy v0.99pb5
#
DISCID=cd0fb40f
DTITLE=Graham Bond Organization  - Singles and Rarities Vol 1  FLAC
DYEAR=1900
DGENRE=
TTITLE0=Wade In The Water
TTITLE1=I Saw Her Standing There
TTITLE2=Farewell Baby
TTITLE3=I Got A Woman
TTITLE4=Shake, Rattle And Roll
TTITLE5=What'd I Say
TTITLE6=I Saw her Standing There (Alt. Version)
TTITLE7=Farewell Baby (Alt. Version)
TTITLE8=The Grass Is Greener
TTITLE9=Doxy
TTITLE10=Ho Ho Country Kicking Blues
TTITLE11=Swing-A-Ling (Parts 1 and 2)
TTITLE12=Just A Little Walk (Part 1)
TTITLE13=Just A Little Walk (Part 2)
TTITLE14=So-Ho
EXTD=
EXTT0=
EXTT1=
EXTT2=
EXTT3=
EXTT4=
EXTT5=
EXTT6=
EXTT7=
EXTT8=
EXTT9=
EXTT10=
EXTT11=
EXTT12=
EXTT13=
EXTT14=
PLAYORDER=
